<svg fill="none" height="24" viewBox="0 0 24 24" width="24" xmlns="http://www.w3.org/2000/svg"><g fill="#292d32"><path d="m8 5.75c-.41 0-.75-.34-.75-.75v-3c0-.41.34-.75.75-.75s.75.34.75.75v3c0 .41-.34.75-.75.75z"/><path d="m16 5.75c-.41 0-.75-.34-.75-.75v-3c0-.41.34-.75.75-.75s.75.34.75.75v3c0 .41-.34.75-.75.75z"/><path d="m8.5 14.5001c-.13 0-.26-.02-.38-.08-.12-.05-.23001-.12-.33001-.21-.18-.19-.28999-.45-.28999-.71 0-.13.03-.26.08-.38s.11999-.23.20999-.33c.1-.09.21001-.16.33001-.21.36-.15.81001-.07 1.09001.21.09.1.15999.21.20999.33s.08.25.08.38c0 .26-.10999.52-.28999.71-.19.18-.45001.29-.71001.29z"/><path d="m12 14.4999c-.26 0-.52-.11-.71-.29-.09-.1-.16-.21-.21-.33s-.08-.25-.08-.38c0-.26.11-.52.29-.71.28-.28.72-.37 1.09-.21.12.05.23.12.33.21.18.19.29.45.29.71 0 .13-.02.26-.08.38-.05.12-.12.23-.21.33-.1.09-.21.16-.33.21-.12.06-.25.08-.38.08z"/><path d="m8.5 17.9999c-.13 0-.26-.03-.38-.08s-.23001-.12-.33001-.21c-.18-.19-.28999-.44-.28999-.71 0-.13.03-.26.08-.38.05-.13.11999-.23.20999-.33.1-.09.21001-.16.33001-.21.36-.16.81001-.07 1.09001.21.09.1.15999.2.20999.33.05.12.08.25.08.38 0 .27-.10999.52-.28999.71-.19.18-.45001.29-.71001.29z"/><path d="m20.5 9.83984h-17c-.41 0-.75-.34-.75-.75s.34-.75.75-.75h17c.41 0 .75.34.75.75s-.34.75-.75.75z"/><path d="m18 23.75c-2.62 0-4.75-2.13-4.75-4.75s2.13-4.75 4.75-4.75 4.75 2.13 4.75 4.75-2.13 4.75-4.75 4.75zm0-8c-1.79 0-3.25 1.46-3.25 3.25s1.46 3.25 3.25 3.25 3.25-1.46 3.25-3.25-1.46-3.25-3.25-3.25z"/><path d="m19.49 19.7998h-2.99c-.41 0-.75-.34-.75-.75s.34-.75.75-.75h2.99c.41 0 .75.34.75.75s-.33.75-.75.75z"/><path d="m18 21.3298c-.41 0-.75-.34-.75-.75v-2.99c0-.41.34-.75.75-.75s.75.34.75.75v2.99c0 .41-.34.75-.75.75z"/><path d="m15.37 22.75h-7.37c-3.65 0-5.75-2.1-5.75-5.75v-8.5c0-3.65 2.1-5.75 5.75-5.75h8c3.65 0 5.75 2.1 5.75 5.75v7.86c0 .31-.19.59-.49.7-.29.11-.62.03-.83-.21-.62-.7-1.51-1.1-2.44-1.1-1.79 0-3.25 1.46-3.25 3.25 0 .59.16 1.17.47 1.67.17.3.39.55.63.76.24.2.33.53.22.83-.09.29-.37.49-.69.49zm-7.37-18.5c-2.86 0-4.25 1.39-4.25 4.25v8.5c0 2.86 1.39 4.25 4.25 4.25h5.82c-.37-.68-.57-1.45-.57-2.25 0-2.62 2.13-4.75 4.75-4.75.79 0 1.57.2 2.25.57v-6.32c0-2.86-1.39-4.25-4.25-4.25z"/></g></svg>