<svg fill="none" height="20" viewBox="0 0 20 20" width="20" xmlns="http://www.w3.org/2000/svg"><g fill="#212121"><path d="m4 4c0-1.10457.89543-2 2-2h8c1.1046 0 2 .89543 2 2v9.883l-1 1.01v-10.893c0-.55228-.4477-1-1-1h-8c-.55228 0-1 .44772-1 1v12c0 .5523.44772 1 1 1h4.0854c.0706.2002.1851.3885.3435.5501l.4411.4499h-4.87c-1.10457 0-2-.8954-2-2z"/><path d="m8 5.5c0 .55228-.44772 1-1 1s-1-.44772-1-1 .44772-1 1-1 1 .44772 1 1z"/><path d="m9.5 5c-.27614 0-.5.22386-.5.5s.22386.5.5.5h4c.2761 0 .5-.22386.5-.5s-.2239-.5-.5-.5z"/><path d="m9.5 9c-.27614 0-.5.22386-.5.5s.22386.5.5.5h4c.2761 0 .5-.22386.5-.5s-.2239-.5-.5-.5z"/><path d="m9 13.5c0-.2761.22386-.5.5-.5h4c.2761 0 .5.2239.5.5s-.2239.5-.5.5h-4c-.27614 0-.5-.2239-.5-.5z"/><path d="m7 10.5c.55228 0 1-.4477 1-1 0-.55228-.44772-1-1-1s-1 .44772-1 1c0 .5523.44772 1 1 1z"/><path d="m7 14.5c.55228 0 1-.4477 1-1s-.44772-1-1-1-1 .4477-1 1 .44772 1 1 1z"/><path d="m17.8553 14.8518c.1943-.1962.1927-.5128-.0035-.7071s-.5128-.1927-.7071.0035l-3.6429 3.6794-1.6448-1.6776c-.1933-.1972-.5099-.2004-.707-.007-.1972.1933-.2004.5099-.007.707l1.9289 1.9676c.2344.2391.6192.24.8548.0021z"/></g></svg>